<svg width="115" height="115" viewBox="0 0 115 115" fill="none" xmlns="http://www.w3.org/2000/svg">
<g id="lightbulb">
<mask id="mask0_70_365" style="mask-type:alpha" maskUnits="userSpaceOnUse" x="0" y="0" width="115" height="115">
<rect id="Bounding box" width="115" height="115" fill="#D9D9D9"/>
</mask>
<g mask="url(#mask0_70_365)">
<g id="Vector">
<path d="M57.5 105.417C54.8646 105.417 52.6085 104.478 50.7318 102.602C48.855 100.725 47.9167 98.4688 47.9167 95.8333H67.0833C67.0833 98.4688 66.145 100.725 64.2682 102.602C62.3915 104.478 60.1354 105.417 57.5 105.417ZM38.3333 91.0417V81.4583H76.6667V91.0417H38.3333ZM39.5312 76.6667C34.0208 73.3924 29.6484 69 26.4141 63.4896C23.1797 57.9792 21.5625 51.9896 21.5625 45.5208C21.5625 35.5382 25.0564 27.0529 32.0443 20.0651C39.0321 13.0773 47.5174 9.58333 57.5 9.58333C67.4826 9.58333 75.9679 13.0773 82.9557 20.0651C89.9436 27.0529 93.4375 35.5382 93.4375 45.5208C93.4375 51.9896 91.8203 57.9792 88.5859 63.4896C85.3516 69 80.9792 73.3924 75.4688 76.6667H39.5312ZM42.4062 67.0833H72.5938C76.1875 64.5278 78.9627 61.3733 80.9193 57.6198C82.8759 53.8663 83.8542 49.8333 83.8542 45.5208C83.8542 38.1736 81.2986 31.9444 76.1875 26.8333C71.0764 21.7222 64.8472 19.1667 57.5 19.1667C50.1528 19.1667 43.9236 21.7222 38.8125 26.8333C33.7014 31.9444 31.1458 38.1736 31.1458 45.5208C31.1458 49.8333 32.1241 53.8663 34.0807 57.6198C36.0373 61.3733 38.8125 64.5278 42.4062 67.0833Z" fill="white"/>
<path d="M43.6918 52.3494C46.1655 64.7575 56.7753 68.9113 60.7284 69.9405C60.8477 69.9715 60.9656 69.9739 61.0861 69.9472C61.1934 69.9234 61.2711 69.8271 61.2679 69.7174C61.2516 69.1536 61.1624 68.5941 61.0021 68.0527C60.7963 67.3567 60.5243 66.6829 60.2411 66.0146C59.1918 63.5392 57.9955 59.5942 56.3844 53.9924C53.2859 43.2206 55.8185 34.9319 56.7695 34.9319C57.3277 34.9009 57.3062 36.4179 57.2736 38.7044C57.2294 41.8129 57.1649 46.3436 58.5095 50.341C59.6944 53.8632 60.7512 56.8346 61.628 59.2996L61.6293 59.3034C62.6267 62.1076 63.3909 64.2562 63.8451 65.815C64.0289 66.4459 64.2699 67.0695 64.7042 67.5629C65.0219 67.9237 65.5591 67.9661 65.9524 67.6884C69.7736 64.9899 73.1992 60.0895 71.8234 53.1885C69.6949 45.3458 66.5326 40.9641 63.8558 37.2551C61.1237 33.4697 58.8973 30.3849 58.7918 25.0363C54.875 27.3368 41.1804 39.752 43.6918 52.3494Z" fill="white"/>
</g>
</g>
</g>
</svg>
