<svg width="630" height="760" viewBox="0 0 630 760" fill="none" xmlns="http://www.w3.org/2000/svg">
<path d="M20.7548 102.446C78.355 211.178 188.935 220.471 228.694 219.103C229.895 219.062 231.001 218.757 232.051 218.175C232.987 217.656 233.444 216.542 233.109 215.529C231.389 210.323 229 205.358 225.999 200.759C222.141 194.846 217.729 189.323 213.226 183.883C196.548 163.731 174.41 130.297 143.791 82.5777C84.9108 -9.18018 85.4957 -93.4118 94.3718 -96.0471C99.4958 -97.8825 103.514 -83.6914 109.57 -62.3012C117.802 -33.2219 129.803 9.1626 153.471 42.6737C174.326 72.2012 192.455 96.9525 207.494 117.486L207.517 117.517C224.626 140.875 237.735 158.773 246.31 172.035C249.78 177.402 253.764 182.544 259.19 185.936C263.159 188.417 268.29 187.324 271.189 183.647C299.349 147.92 317.692 92.7764 285.657 32.3039C243.977 -34.8563 202.274 -66.9102 166.973 -94.0429C130.945 -121.735 101.584 -144.301 85.7231 -193.833C55.5646 -161.549 -37.7242 -7.94412 20.7548 102.446Z" fill="#509D46" fill-opacity="0.20"/>
<path d="M345.133 711.416C472.747 799.457 601.646 745.742 645.251 721.17C646.568 720.428 647.626 719.447 648.46 718.187C649.203 717.065 649.065 715.557 648.101 714.62C643.15 709.802 637.593 705.642 631.564 702.247C623.814 697.879 615.672 694.268 607.477 690.802C577.122 677.965 532.938 653.458 470.97 617.915C351.806 549.571 303.431 455.166 311.809 447.079C316.463 442.059 329.211 455.578 348.424 475.956C374.544 503.658 412.616 544.036 458.552 567.742C499.03 588.629 533.682 605.762 562.429 619.976L562.472 619.998C595.175 636.166 620.232 648.556 637.528 658.397C644.527 662.379 651.968 665.812 660.002 666.455C665.879 666.926 670.973 662.73 672.069 656.944C682.722 600.724 671.11 528.511 600.136 479.545C514.498 428.702 449.269 417.077 394.054 407.237C337.7 397.194 291.777 389.01 245.234 342.888C230.345 396.422 215.572 622.031 345.133 711.416Z" fill="#509D46" fill-opacity="0.20"/>
<path d="M760.557 16.143C807.547 191.139 697.481 311.742 653.179 350.02C651.841 351.176 650.34 351.953 648.621 352.375C647.09 352.75 645.479 352.005 644.823 350.576C641.452 343.235 639.045 335.485 637.669 327.519C635.896 317.277 635.114 306.901 634.513 296.525C632.286 258.09 622.616 199.854 607.76 117.715C579.197 -40.2342 493.985 -130.597 481.755 -124.567C474.379 -121.426 484.291 -102.085 499.231 -72.9343C519.541 -33.3044 549.144 24.4587 557.239 84.3076C564.371 137.043 569.65 181.894 574.03 219.103L574.038 219.16C579.019 261.487 582.837 293.92 586.895 316.814C588.538 326.079 589.399 335.613 586.947 344.702C585.153 351.349 578.514 355.3 571.693 354.227C505.411 343.809 430.234 302.611 404.1 205.285C381.665 91.0933 394.506 14.7849 405.377 -49.8088C416.472 -115.734 425.513 -169.457 392.901 -238.798C457.883 -234.095 712.851 -161.523 760.557 16.143Z" fill="#509D46" fill-opacity="0.20"/>
<path d="M226.231 -409.867C300.01 -355.155 294.322 -272.762 288.798 -243.672C288.631 -242.794 288.281 -242.015 287.731 -241.308C287.242 -240.678 286.368 -240.469 285.657 -240.83C282.006 -242.686 278.61 -245.007 275.554 -247.737C271.624 -251.246 268.045 -255.118 264.537 -259.048C251.545 -273.603 229.361 -293.683 197.588 -321.622C136.492 -375.348 74.2054 -384.48 71.2511 -378.25C69.3137 -374.69 79.3401 -370.123 94.4532 -363.24C114.999 -353.884 144.945 -340.245 167.013 -319.032C186.456 -300.339 202.682 -284.195 216.142 -270.801L216.163 -270.781C231.474 -255.545 243.207 -243.87 252.03 -236.058C255.601 -232.896 258.947 -229.382 260.837 -225.005C262.219 -221.805 260.828 -218.154 257.783 -216.44C228.195 -199.782 185.38 -192.549 144.347 -222.978C99.4684 -261.26 80.5248 -295.574 64.4897 -324.62C48.1243 -354.265 34.788 -378.423 6.10352e-05 -395.712C27.2715 -414.231 151.327 -465.413 226.231 -409.867Z" fill="#509D46" fill-opacity="0.20"/>
</svg>
