<svg width="659" height="951" viewBox="0 0 659 951" fill="none" xmlns="http://www.w3.org/2000/svg">
<path d="M638.245 537.446C580.645 646.178 470.065 655.471 430.306 654.103C429.105 654.062 427.999 653.757 426.949 653.175C426.013 652.656 425.556 651.542 425.891 650.529C427.611 645.323 430 640.358 433.001 635.759C436.859 629.846 441.271 624.323 445.774 618.883C462.452 598.731 484.59 565.297 515.209 517.578C574.089 425.82 573.504 341.588 564.628 338.953C559.504 337.118 555.486 351.309 549.43 372.699C541.198 401.778 529.197 444.163 505.529 477.674C484.674 507.201 466.545 531.953 451.506 552.486L451.483 552.517C434.374 575.875 421.265 593.773 412.69 607.035C409.22 612.402 405.236 617.544 399.81 620.936C395.841 623.417 390.71 622.324 387.811 618.647C359.651 582.92 341.308 527.776 373.343 467.304C415.023 400.144 456.726 368.09 492.027 340.957C528.055 313.265 557.416 290.699 573.277 241.167C603.435 273.451 696.724 427.056 638.245 537.446Z" fill="#509D46" fill-opacity="0.20"/>
<path d="M313.867 1146.42C186.253 1234.46 57.3541 1180.74 13.7492 1156.17C12.4324 1155.43 11.3745 1154.45 10.5403 1153.19C9.79701 1152.07 9.93513 1150.56 10.8986 1149.62C15.8498 1144.8 21.4074 1140.64 27.436 1137.25C35.1857 1132.88 43.3283 1129.27 51.523 1125.8C81.8784 1112.96 126.062 1088.46 188.03 1052.91C307.194 984.571 355.569 890.166 347.191 882.079C342.537 877.059 329.789 890.578 310.576 910.956C284.456 938.658 246.384 979.036 200.448 1002.74C159.97 1023.63 125.318 1040.76 96.5715 1054.98L96.5278 1055C63.8254 1071.17 38.768 1083.56 21.4725 1093.4C14.4734 1097.38 7.03195 1100.81 -1.00246 1101.46C-6.87864 1101.93 -11.9729 1097.73 -13.0693 1091.94C-23.7222 1035.72 -12.1101 963.511 58.8639 914.545C144.502 863.702 209.731 852.077 264.946 842.237C321.3 832.194 367.223 824.01 413.766 777.888C428.655 831.422 443.428 1057.03 313.867 1146.42Z" fill="#509D46" fill-opacity="0.20"/>
<path d="M-101.557 451.143C-148.547 626.139 -38.4812 746.742 5.82149 785.02C7.15932 786.176 8.65958 786.953 10.3786 787.375C11.9105 787.75 13.521 787.005 14.177 785.576C17.5481 778.235 19.9546 770.485 21.3312 762.519C23.1037 752.277 23.8859 741.901 24.4871 731.525C26.7138 693.09 36.3836 634.854 51.2404 552.715C79.8032 394.766 165.015 304.403 177.245 310.433C184.621 313.574 174.709 332.915 159.769 362.066C139.459 401.696 109.856 459.459 101.761 519.308C94.6293 572.043 89.3496 616.894 84.9695 654.103L84.9624 654.16C79.9814 696.487 76.1633 728.92 72.1047 751.814C70.4622 761.079 69.6006 770.613 72.0533 779.702C73.8471 786.349 80.4858 790.3 87.3073 789.227C153.589 778.809 228.766 737.611 254.9 640.285C277.335 526.093 264.494 449.785 253.623 385.191C242.528 319.266 233.487 265.543 266.099 196.202C201.117 200.905 -53.8511 273.477 -101.557 451.143Z" fill="#509D46" fill-opacity="0.20"/>
<path d="M432.769 25.133C358.99 79.8447 364.678 162.238 370.202 191.328C370.369 192.206 370.719 192.985 371.269 193.692C371.758 194.322 372.632 194.531 373.343 194.17C376.994 192.314 380.39 189.993 383.446 187.263C387.376 183.754 390.955 179.882 394.463 175.952C407.455 161.397 429.639 141.317 461.412 113.378C522.508 59.6518 584.795 50.52 587.749 56.7498C589.686 60.3104 579.66 64.8769 564.547 71.7596C544.001 81.1164 514.055 94.7549 491.987 115.968C472.544 134.661 456.318 150.805 442.858 164.199L442.837 164.219C427.526 179.455 415.793 191.13 406.97 198.942C403.399 202.104 400.053 205.618 398.163 209.995C396.781 213.195 398.172 216.846 401.217 218.56C430.805 235.218 473.62 242.451 514.653 212.022C559.532 173.74 578.475 139.426 594.51 110.38C610.876 80.7353 624.212 56.5772 659 39.2875C631.728 20.769 507.673 -30.4135 432.769 25.133Z" fill="#509D46" fill-opacity="0.20"/>
</svg>
